<?xml version="1.0" encoding="UTF-8"?>
<svg width="230px" height="72px" viewBox="0 0 230 72" version="1.1" xmlns="http://www.w3.org/2000/svg" xmlns:xlink="http://www.w3.org/1999/xlink">
    <title>Logo/Workplace-OnLight@3x</title>
    <g id="Workplace" stroke="none" stroke-width="1" fill="none" fill-rule="evenodd">
        <g id="Logo" transform="translate(-505.000000, -551.000000)">
            <g id="Logo/Workplace-OnLight" transform="translate(505.000000, 551.000000)">
                <path d="M127.691071,37.9680387 C133.735587,37.9680387 139.877652,42.8326839 139.877652,50.9895871 L139.877652,51.0871355 C139.877652,59.2440387 133.735587,64.2073935 127.691071,64.2073935 C122.678942,64.2073935 119.436619,61.3575871 117.371845,58.2128129 L117.371845,71.4793935 L114.96449,71.4793935 L114.96449,38.5579742 L117.371845,38.5579742 L117.371845,44.1588774 C119.534168,40.8666194 122.728877,37.9680387 127.691071,37.9680387 Z M52.9939742,37.9680387 C60.4134581,37.9680387 65.8192645,43.9626194 65.8192645,50.9895871 L65.8192645,51.0871355 C65.8192645,58.1141032 60.3646839,64.2073935 52.8952645,64.2073935 C45.4757806,64.2073935 40.0711355,58.2128129 40.0711355,51.1858452 L40.0711355,51.0871355 C40.0711355,44.0601677 45.5257161,37.9680387 52.9939742,37.9680387 Z M165.088219,38.1642968 C168.479187,38.1642968 171.18151,39.0979742 173.00009,40.9153935 C174.670026,42.5876516 175.554929,44.8962968 175.554929,47.9922968 L175.554929,63.6174581 L173.196348,63.6174581 L173.196348,59.4402968 C171.476477,61.8488129 168.380477,64.2073935 163.614542,64.2073935 C158.946155,64.2073935 153.934026,61.5538452 153.934026,56.3442968 L153.934026,56.2467484 C153.934026,51.0383613 158.406155,48.0898452 164.891961,48.0898452 C168.380477,48.0898452 170.788994,48.5322968 173.196348,49.1721677 L173.196348,48.0898452 C173.196348,43.0301032 170.100348,40.4241677 164.940735,40.4241677 C161.894671,40.4241677 159.388606,41.2602968 157.0788,42.4401677 L156.195058,40.3254581 C158.946155,39.0492 161.649639,38.1642968 165.088219,38.1642968 Z M193.442981,37.9680387 C198.160142,37.9680387 201.108658,40.1292 203.467239,42.5876516 L201.747368,44.3551355 C199.586206,42.1452 197.128916,40.2279097 193.394206,40.2279097 C187.694594,40.2279097 183.2724,44.9950065 183.2724,50.9895871 L183.2724,51.0871355 C183.2724,57.1316516 187.842077,61.9475226 193.590465,61.9475226 C197.128916,61.9475226 199.880013,60.1289419 201.993561,57.7703613 L203.663497,59.2440387 C201.108658,62.1437806 198.062594,64.2073935 193.442981,64.2073935 C186.219755,64.2073935 180.667626,58.2128129 180.667626,51.1858452 L180.667626,51.0871355 C180.667626,44.0601677 186.26969,37.9680387 193.442981,37.9680387 Z M218.069535,37.9685032 C225.096503,37.9685032 229.567471,43.6681161 229.567471,51.0876 C229.567471,51.5288903 229.567471,51.6763742 229.518697,52.0700516 L208.733923,52.0700516 C209.176374,58.3108258 213.647342,61.9468258 218.560761,61.9468258 C222.442955,61.9468258 225.096503,60.2269548 227.160116,58.0158581 L228.831213,59.4895355 C226.275213,62.2417935 223.277923,64.2066968 218.463213,64.2066968 C211.878697,64.2066968 206.179084,58.9495355 206.179084,51.1375355 L206.179084,51.0388258 C206.179084,43.7656645 211.288761,37.9685032 218.069535,37.9685032 Z M20.1126194,38.4591484 L27.6795871,60.5712774 L35.2465548,38.5578581 L37.8501677,38.5578581 L28.6620387,63.8136 L26.5984258,63.8136 L19.1301677,42.3413419 L11.6119742,63.8136 L9.5472,63.8136 L0.359070968,38.5578581 L3.06139355,38.5578581 L10.6283613,60.5712774 L18.195329,38.4591484 L20.1126194,38.4591484 Z M91.6704,27.7468258 L91.6704,54.6260516 L107.198013,38.5584387 L110.391561,38.5584387 L99.4347871,49.6626968 L110.736465,63.6179226 L107.689239,63.6179226 L97.7636903,51.3825677 L91.6704,57.5246323 L91.6704,63.6179226 L89.2630452,63.6179226 L89.2630452,27.7468258 L91.6704,27.7468258 Z M148.331729,27.7470581 L148.331729,63.6181548 L145.924374,63.6181548 L145.924374,27.7470581 L148.331729,27.7470581 Z M84.9368903,38.1642968 L84.9368903,40.8178452 L84.6906968,40.8178452 C78.8935355,40.8178452 73.831471,45.1912645 73.831471,53.3470065 L73.831471,63.6174581 L71.4241161,63.6174581 L71.4241161,38.5579742 L73.831471,38.5579742 L73.831471,45.6824903 C75.7975355,41.2103613 79.9735355,37.9680387 84.9368903,38.1642968 Z M52.8952645,40.2279097 C46.9506194,40.2279097 42.6747484,45.0925548 42.6747484,50.9895871 L42.6747484,51.0871355 C42.6747484,57.1316516 47.1956516,61.9475226 52.9939742,61.9475226 C58.9397806,61.9475226 63.2144903,57.0817161 63.2144903,51.1858452 L63.2144903,51.0871355 C63.2144903,45.0437806 58.6935871,40.2279097 52.8952645,40.2279097 Z M164.744477,50.2521677 C159.437381,50.2521677 156.490026,52.6107484 156.490026,56.0992645 L156.490026,56.1968129 C156.490026,59.8339742 159.929768,61.9475226 163.762026,61.9475226 C168.871703,61.9475226 173.245123,58.8027484 173.245123,54.2319097 L173.245123,51.3821032 C171.132735,50.8421032 168.331703,50.2521677 164.744477,50.2521677 Z M127.446039,40.2766839 C122.23649,40.2766839 117.224361,44.6501032 117.224361,51.0383613 L117.224361,51.137071 C117.224361,57.5741032 122.23649,61.8987484 127.446039,61.8987484 C132.899458,61.8987484 137.272877,57.9178452 137.272877,51.1858452 L137.272877,51.0871355 C137.272877,44.5026194 132.7032,40.2766839 127.446039,40.2766839 Z M217.971987,40.1784387 C213.008632,40.1784387 209.176374,44.3556 208.733923,49.907729 L226.963858,49.907729 C226.620116,44.8479871 223.720374,40.1784387 217.971987,40.1784387 Z" id="workplace" fill="#5E5F60" fill-rule="nonzero"></path>
                <path d="M58.5538839,0.000464516129 L65.2835613,15.6558194 L72.5938839,0.000464516129 L76.4284645,0.000464516129 L63.2768516,26.8634323 L59.6048516,26.8634323 L63.3802065,19.5322065 L54.7134968,0.000464516129 L58.5538839,0.000464516129 Z M84.935729,3.49541185e-15 L94.4652774,19.5305806 L90.623729,19.5305806 L83.603729,4.45122581 L79.1885032,13.9854194 L85.6371484,13.9854194 L86.6823097,16.5669677 L77.9784387,16.5669677 L76.5883742,19.5305806 L72.7491484,19.5305806 L82.2798581,3.49541185e-15 L84.935729,3.49541185e-15 Z M12.1900645,3.49541185e-15 L21.7196129,19.5305806 L17.8780645,19.5305806 L10.8569032,4.45122581 L6.44283871,13.9854194 L12.8891613,13.9854194 L13.9354839,16.5669677 L5.23393548,16.5669677 L3.84387097,19.5305806 L-2.04624848e-13,19.5305806 L9.53070968,3.49541185e-15 L12.1900645,3.49541185e-15 Z M48.4276645,3.49541185e-15 L57.9572129,19.5305806 L54.1145032,19.5305806 L47.0968258,4.45122581 L42.6804387,13.9854194 L49.1290839,13.9854194 L50.1730839,16.5669677 L41.4703742,16.5669677 L40.0803097,19.5305806 L36.2387613,19.5305806 L45.7683097,3.49541185e-15 L48.4276645,3.49541185e-15 Z M21.9646452,-5.73018335e-17 L28.9846452,15.3661935 L36.0058065,-5.73018335e-17 L39.843871,-5.73018335e-17 L30.3166452,19.5305806 L27.6549677,19.5305806 L18.1300645,-5.73018335e-17 L21.9646452,-5.73018335e-17 Z" id="avaya" fill="#DA291C"></path>
            </g>
        </g>
    </g>
</svg>