<?xml version="1.0" encoding="utf-8"?>
<!-- Generator: Adobe Illustrator 16.0.2, SVG Export Plug-In . SVG Version: 6.00 Build 0)  -->
<!DOCTYPE svg PUBLIC "-//W3C//DTD SVG 1.1//EN" "http://www.w3.org/Graphics/SVG/1.1/DTD/svg11.dtd">
<svg version="1.1" id="Layer_1" xmlns="http://www.w3.org/2000/svg" xmlns:xlink="http://www.w3.org/1999/xlink" x="0px" y="0px"
	 width="22px" height="22px" viewBox="0 0 22 22" enable-background="new 0 0 22 22" xml:space="preserve">
<path fill="#5A646E" d="M13.199,2.2c0,1.214-0.984,2.2-2.2,2.2C9.785,4.4,8.8,3.414,8.8,2.2C8.8,0.984,9.785,0,10.999,0
	C12.215,0,13.199,0.984,13.199,2.2"/>
<g opacity="0.2">
	<g>
		<defs>
			<rect id="SVGID_1_" x="2.577" y="2.577" width="4.4" height="4.4"/>
		</defs>
		<clipPath id="SVGID_2_">
			<use xlink:href="#SVGID_1_"  overflow="visible"/>
		</clipPath>
		<path clip-path="url(#SVGID_2_)" fill="#5A646E" d="M6.333,3.22c0.859,0.86,0.859,2.252,0,3.112c-0.858,0.859-2.252,0.859-3.112,0
			c-0.857-0.86-0.857-2.252,0-3.112C4.081,2.362,5.475,2.362,6.333,3.22"/>
	</g>
</g>
<g opacity="0.3">
	<g>
		<defs>
			<rect id="SVGID_3_" y="8.799" width="4.4" height="4.399"/>
		</defs>
		<clipPath id="SVGID_4_">
			<use xlink:href="#SVGID_3_"  overflow="visible"/>
		</clipPath>
		<path clip-path="url(#SVGID_4_)" fill="#5A646E" d="M2.2,8.799c1.215,0,2.2,0.984,2.2,2.2s-0.985,2.2-2.2,2.2S0,12.214,0,10.999
			S0.985,8.799,2.2,8.799"/>
	</g>
</g>
<g opacity="0.5">
	<g>
		<defs>
			<rect id="SVGID_5_" x="2.577" y="15.021" width="4.4" height="4.399"/>
		</defs>
		<clipPath id="SVGID_6_">
			<use xlink:href="#SVGID_5_"  overflow="visible"/>
		</clipPath>
		<path clip-path="url(#SVGID_6_)" fill="#5A646E" d="M3.223,15.665c0.858-0.858,2.251-0.858,3.11,0c0.859,0.86,0.859,2.253,0,3.113
			c-0.859,0.858-2.252,0.856-3.112,0C2.362,17.917,2.363,16.523,3.223,15.665"/>
	</g>
</g>
<g opacity="0.6">
	<g>
		<defs>
			<rect id="SVGID_7_" x="8.8" y="17.598" width="4.4" height="4.401"/>
		</defs>
		<clipPath id="SVGID_8_">
			<use xlink:href="#SVGID_7_"  overflow="visible"/>
		</clipPath>
		<path clip-path="url(#SVGID_8_)" fill="#5A646E" d="M8.8,19.798c0-1.216,0.985-2.2,2.199-2.2c1.216,0,2.2,0.984,2.202,2.2
			C13.199,21.013,12.215,21.998,11,22C9.785,22,8.801,21.013,8.8,19.798"/>
	</g>
</g>
<g opacity="0.7">
	<g>
		<defs>
			<rect id="SVGID_9_" x="15.021" y="15.021" width="4.4" height="4.399"/>
		</defs>
		<clipPath id="SVGID_10_">
			<use xlink:href="#SVGID_9_"  overflow="visible"/>
		</clipPath>
		<path clip-path="url(#SVGID_10_)" fill="#5A646E" d="M15.665,18.777c-0.858-0.858-0.856-2.252,0-3.111
			c0.86-0.859,2.253-0.859,3.112,0c0.858,0.858,0.858,2.253,0.001,3.111C17.918,19.635,16.525,19.634,15.665,18.777"/>
	</g>
</g>
<g opacity="0.8">
	<g>
		<defs>
			<rect id="SVGID_11_" x="17.599" y="8.799" width="4.401" height="4.4"/>
		</defs>
		<clipPath id="SVGID_12_">
			<use xlink:href="#SVGID_11_"  overflow="visible"/>
		</clipPath>
		<path clip-path="url(#SVGID_12_)" fill="#5A646E" d="M19.799,13.2c-1.215-0.001-2.198-0.986-2.2-2.201
			c0.002-1.215,0.985-2.2,2.201-2.2c1.214,0,2.198,0.985,2.199,2.199C21.999,12.213,21.014,13.199,19.799,13.2"/>
	</g>
</g>
<g opacity="0.9">
	<g>
		<defs>
			<rect id="SVGID_13_" x="15.022" y="2.576" width="4.399" height="4.4"/>
		</defs>
		<clipPath id="SVGID_14_">
			<use xlink:href="#SVGID_13_"  overflow="visible"/>
		</clipPath>
		<path clip-path="url(#SVGID_14_)" fill="#5A646E" d="M18.777,6.332c-0.858,0.859-2.252,0.859-3.11,0s-0.86-2.252,0-3.112
			c0.858-0.858,2.252-0.859,3.11,0S19.636,5.473,18.777,6.332"/>
	</g>
</g>
</svg>
