<svg xmlns="http://www.w3.org/2000/svg" viewBox="0 0 48 48"><title>ic_portal_presentaion</title><path d="M34.66,33.79H5.47V15.09H34.66Zm-28-1.22H33.44V16.31H6.69Z" style="fill:#f2f2f2"/><polygon points="42.52 25.92 37.55 25.92 37.55 24.7 41.31 24.7 41.31 8.44 14.56 8.44 14.56 12.2 13.34 12.2 13.34 7.22 42.52 7.22 42.52 25.92" style="fill:#f2f2f2"/><path d="M17.45,29.42a.61.61,0,0,1-.61-.61V20.07a.6.6,0,0,1,.93-.52l7,4.37a.6.6,0,0,1,.28.52.59.59,0,0,1-.28.51l-7,4.37A.63.63,0,0,1,17.45,29.42Zm.6-8.26v6.55l5.24-3.27Z" style="fill:#f2f2f2"/><rect x="19.46" y="33.18" width="1.22" height="6.99" style="fill:#f2f2f2"/><rect x="10.45" y="39.56" width="19.23" height="1.22" style="fill:#f2f2f2"/><rect width="48" height="48" style="fill:none"/></svg>

