<svg xmlns="http://www.w3.org/2000/svg" width="16px" height="16px" viewBox="0 0 16 16"><title>ic_portal_info</title><path d="M8,4.35A.64.64,0,0,1,8.65,5,.65.65,0,1,1,8,4.35Z" style="fill:#3c5064"/><rect x="6.96" y="10.48" width="2.35" height="0.78" style="fill:#3c5064"/><polygon points="8.52 10.87 7.74 10.87 7.74 7.35 6.96 7.35 6.96 6.57 8.52 6.57 8.52 10.87" style="fill:#3c5064"/><path d="M8,14a6,6,0,1,1,6-6A6,6,0,0,1,8,14ZM8,2.52A5.48,5.48,0,1,0,13.48,8,5.49,5.49,0,0,0,8,2.52Z" style="fill:#3c5064"/><rect width="16" height="16" style="fill:none"/></svg>