<svg xmlns="http://www.w3.org/2000/svg" xmlns:xlink="http://www.w3.org/1999/xlink" version="1.1" x="0px" y="0px" width="32px" height="32px" viewBox="0 0 32 32" enable-background="new 0 0 32 32" xml:space="preserve">
  <path fill="#96A0AA" d="M9.304 15.903c0-0.844 0.682-1.531 1.525-1.531 0.838 0 1.53 0.688 1.53 1.531 0 0.832-0.692 1.525-1.53 1.525C9.985 17.429 9.304 16.735 9.304 15.903zM14.309 15.903c0-0.844 0.682-1.531 1.525-1.531 0.838 0 1.531 0.688 1.531 1.531 0 0.832-0.693 1.525-1.531 1.525C14.99 17.429 14.309 16.735 14.309 15.903zM19.313 15.903c0-0.844 0.683-1.531 1.525-1.531 0.838 0 1.531 0.688 1.531 1.531 0 0.832-0.693 1.525-1.531 1.525C19.996 17.429 19.313 16.735 19.313 15.903z"/>
</svg>
