<svg xmlns="http://www.w3.org/2000/svg" xmlns:xlink="http://www.w3.org/1999/xlink" version="1.1" x="0px" y="0px" width="32px" height="32px" viewBox="0 0 32 32" enable-background="new 0 0 32 32" xml:space="preserve">
  <path fill="#FFFFFF" d="M15.877 19.993l-1.961 1.961c-0.495 0.495-1.302 0.495-1.797 0l-1.307-1.308c-0.495-0.496-0.495-1.301 0-1.797l1.961-1.96c0.277-0.277 0.651-0.394 1.014-0.361l0.923-0.923c-0.901-0.427-2.01-0.278-2.754 0.467l-1.961 1.96c-0.946 0.946-0.946 2.485 0 3.432l1.307 1.308c0.946 0.945 2.485 0.945 3.431 0l1.961-1.961c0.744-0.744 0.894-1.854 0.466-2.754l-0.922 0.922C16.27 19.342 16.154 19.716 15.877 19.993M17.838 10.189l-1.961 1.961c-0.744 0.744-0.894 1.853-0.466 2.754l0.923-0.923c-0.033-0.363 0.083-0.737 0.36-1.014l1.961-1.961c0.495-0.495 1.303-0.495 1.797 0l1.307 1.307c0.496 0.495 0.496 1.302 0 1.797l-1.959 1.961c-0.277 0.277-0.651 0.393-1.014 0.361l-0.924 0.923c0.9 0.428 2.01 0.277 2.754-0.467l1.961-1.961c0.945-0.946 0.945-2.485 0-3.431l-1.308-1.307C20.322 9.244 18.783 9.244 17.838 10.189M19.635 13.947l-5.882 5.883c-0.225 0.225-0.592 0.225-0.817 0 -0.225-0.226-0.225-0.593 0-0.817l5.883-5.882c0.225-0.225 0.592-0.225 0.816 0S19.859 13.723 19.635 13.947"/>
</svg>
