<svg xmlns="http://www.w3.org/2000/svg" xmlns:xlink="http://www.w3.org/1999/xlink" version="1.1" x="0px" y="0px" width="32px" height="32px" viewBox="0 0 32 32" enable-background="new 0 0 32 32" xml:space="preserve">
  <path fill="#5A646E" d="M20.4 10.25v0.9h1H24v10.6H8v-10.6h2.601 1v-0.9h0.7v0.9h1H18.7h1v-0.9H20.4zM21.4 9.25h-2.7v0.9h-5.399v-0.9h-2.7v0.9H7v12.6h18v-12.6h-3.6V9.25z"/>
  <rect x="9.701" y="12.851" fill="#5A646E" width="1.8" height="1.8"/>
  <rect x="12.4" y="12.851" fill="#5A646E" width="1.801" height="1.8"/>
  <rect x="15.101" y="12.851" fill="#5A646E" width="1.8" height="1.8"/>
  <rect x="17.801" y="12.851" fill="#5A646E" width="1.8" height="1.8"/>
  <rect x="20.501" y="12.851" fill="#5A646E" width="1.8" height="1.8"/>
  <rect x="9.701" y="15.551" fill="#5A646E" width="1.8" height="1.8"/>
  <rect x="12.4" y="15.551" fill="#5A646E" width="1.801" height="1.8"/>
  <rect x="15.101" y="15.551" fill="#5A646E" width="1.8" height="1.8"/>
  <rect x="17.801" y="15.551" fill="#5A646E" width="1.8" height="1.8"/>
  <rect x="20.501" y="15.551" fill="#5A646E" width="1.8" height="1.8"/>
  <rect x="9.701" y="18.25" fill="#5A646E" width="1.8" height="1.801"/>
  <rect x="12.4" y="18.25" fill="#5A646E" width="1.801" height="1.801"/>
  <rect x="15.101" y="18.25" fill="#5A646E" width="1.8" height="1.801"/>
  <rect x="17.801" y="18.25" fill="#5A646E" width="1.8" height="1.801"/>
  <rect x="20.501" y="18.25" fill="#5A646E" width="1.8" height="1.801"/>
</svg>
