<?xml version="1.0" encoding="utf-8"?>
<!-- Generator: Adobe Illustrator 16.0.2, SVG Export Plug-In . SVG Version: 6.00 Build 0)  -->
<!DOCTYPE svg PUBLIC "-//W3C//DTD SVG 1.1//EN" "http://www.w3.org/Graphics/SVG/1.1/DTD/svg11.dtd">
<svg version="1.1" xmlns="http://www.w3.org/2000/svg" xmlns:xlink="http://www.w3.org/1999/xlink" x="0px" y="0px" width="32px"
	 height="32px" viewBox="0 0 32 32" enable-background="new 0 0 32 32" xml:space="preserve">
<g id="Layer_1">
	<polygon fill="none" stroke="#3B5064" stroke-width="0.75" stroke-miterlimit="10" points="20.671,10.792 20.671,8.125 
		18.768,8.125 18.768,10.792 11.907,10.792 11.907,8.125 10.005,8.125 10.005,10.792 7.338,10.792 7.338,24.125 23.338,24.125 
		23.338,10.792 	"/>
</g>
<g id="Layer_2">
	<rect x="9.578" y="17.53" fill="none" stroke="#3C5064" stroke-miterlimit="10" width="0.8" height="0.801"/>
	<rect x="9.578" y="14.833" fill="none" stroke="#3C5064" stroke-miterlimit="10" width="0.8" height="0.8"/>
	<rect x="9.578" y="20.199" fill="none" stroke="#3C5064" stroke-miterlimit="10" width="0.8" height="0.801"/>
	<rect x="12.278" y="17.545" fill="none" stroke="#3C5064" stroke-miterlimit="10" width="0.8" height="0.801"/>
	<rect x="12.278" y="14.847" fill="none" stroke="#3C5064" stroke-miterlimit="10" width="0.8" height="0.8"/>
	<rect x="12.278" y="20.213" fill="none" stroke="#3C5064" stroke-miterlimit="10" width="0.8" height="0.801"/>
	<rect x="14.938" y="17.545" fill="none" stroke="#3C5064" stroke-miterlimit="10" width="0.8" height="0.801"/>
	<rect x="14.938" y="14.847" fill="none" stroke="#3C5064" stroke-miterlimit="10" width="0.8" height="0.8"/>
	<rect x="14.938" y="20.213" fill="none" stroke="#3C5064" stroke-miterlimit="10" width="0.8" height="0.801"/>
	<rect x="17.611" y="17.545" fill="none" stroke="#3C5064" stroke-miterlimit="10" width="0.801" height="0.801"/>
	<rect x="17.612" y="14.848" fill="none" stroke="#3C5064" stroke-miterlimit="10" width="0.8" height="0.8"/>
	<rect x="17.611" y="20.213" fill="none" stroke="#3C5064" stroke-miterlimit="10" width="0.801" height="0.801"/>
	<rect x="20.271" y="17.545" fill="none" stroke="#3C5064" stroke-miterlimit="10" width="0.801" height="0.801"/>
	<rect x="20.272" y="14.848" fill="none" stroke="#3C5064" stroke-miterlimit="10" width="0.8" height="0.8"/>
	<rect x="20.271" y="20.213" fill="none" stroke="#3C5064" stroke-miterlimit="10" width="0.801" height="0.801"/>
</g>
</svg>
