<?xml version="1.0" encoding="utf-8"?>
<!-- Generator: Adobe Illustrator 17.0.0, SVG Export Plug-In . SVG Version: 6.00 Build 0)  -->
<!DOCTYPE svg PUBLIC "-//W3C//DTD SVG 1.1//EN" "http://www.w3.org/Graphics/SVG/1.1/DTD/svg11.dtd">
<svg version="1.1" id="Layer_1" xmlns="http://www.w3.org/2000/svg" xmlns:xlink="http://www.w3.org/1999/xlink" x="0px" y="0px"
	 width="30px" height="30px" viewBox="0 0 30 30" enable-background="new 0 0 30 30" xml:space="preserve">
<path fill="none" stroke="#FFFFFF" stroke-miterlimit="10" d="M10.055,14.994l9.889-5.71 M10.055,14.994l9.889,5.71"/>
<path fill="#FFFFFF" d="M12.305,14.994c0,1.243-1.007,2.25-2.25,2.25s-2.25-1.007-2.25-2.25s1.007-2.25,2.25-2.25
	S12.305,13.751,12.305,14.994z M19.945,7.034c-1.243,0-2.25,1.007-2.25,2.25s1.007,2.25,2.25,2.25c1.243,0,2.25-1.007,2.25-2.25
	S21.187,7.034,19.945,7.034z M19.945,18.453c-1.243,0-2.25,1.007-2.25,2.25c0,1.243,1.007,2.25,2.25,2.25
	c1.243,0,2.25-1.007,2.25-2.25C22.195,19.46,21.187,18.453,19.945,18.453z"/>
</svg>
