<svg xmlns:dc="http://purl.org/dc/elements/1.1/" xmlns:cc="http://creativecommons.org/ns#" xmlns:rdf="http://www.w3.org/1999/02/22-rdf-syntax-ns#" xmlns:svg="http://www.w3.org/2000/svg" xmlns="http://www.w3.org/2000/svg" xmlns:sodipodi="http://sodipodi.sourceforge.net/DTD/sodipodi-0.dtd" xmlns:inkscape="http://www.inkscape.org/namespaces/inkscape" id="svg4219" version="1.1" inkscape:version="0.91 r13725" xml:space="preserve" width="176" height="100" viewBox="0 0 176 100" sodipodi:docname="avaya_thumbnail_176x100.svg">
<style>
.s0{
	fill-opacity:1;
	fill-rule:nonzero;
	fill:#fff;
}

</style>  <metadata id="metadata4225">
    <rdf:RDF>
      <cc:Work rdf:about="">
        <dc:format>
          image/svg+xml
        </dc:format>
        <dc:type rdf:resource="http://purl.org/dc/dcmitype/StillImage"/>
      </cc:Work>
    </rdf:RDF>
  </metadata>
  <defs id="defs4223">
    <clipPath clipPathUnits="userSpaceOnUse" id="clipPath4235">
      <path d="M0 100 176 100 176 0 0 0 0 100Z" id="path4237" inkscape:connector-curvature="0"/>
    </clipPath>
    <clipPath clipPathUnits="userSpaceOnUse" id="clipPath4245">
      <path d="m51.6044 80.7452 72.1676 0 0-60.5979-72.1676 0 0 60.5979z" id="path4247" inkscape:connector-curvature="0"/>
    </clipPath>
  </defs>
  <sodipodi:namedview pagecolor="#ffffff" bordercolor="#666666" borderopacity="1" objecttolerance="10" gridtolerance="10" guidetolerance="10" inkscape:pageopacity="0" inkscape:pageshadow="2" inkscape:window-width="1920" inkscape:window-height="1017" id="namedview4221" showgrid="false" inkscape:zoom="3.7545455" inkscape:cx="156.75383" inkscape:cy="43.044054" inkscape:window-x="1272" inkscape:window-y="-8" inkscape:window-maximized="1" inkscape:current-layer="g4227"/>
  <g id="g4227" inkscape:groupmode="layer" inkscape:label="avaya_thumbnail_176x100" transform="matrix(1.25,0,0,-1.25,0,100)">
    <path d="m0.41989879 0.36324717 140.67631121 0 0 79.15986883-140.67631121 0 0-79.15986883z" id="path4229" inkscape:connector-curvature="0" style="fill-opacity:1;fill-rule:nonzero;fill:transparent"/>
    <g id="g4231" transform="matrix(0.80386466,0,0,0.79959464,0.00269303,0.0010308)">
      <g id="g4233" clip-path="url(#clipPath4235)">
        <g id="g4241">
          <g id="g4243"/>
          <g id="g4249">
            <g clip-path="url(#clipPath4245)" id="g4251" opacity="0.39999402">
              <g transform="translate(109.73,70.3096)" id="g4253">
                <path d="m0 0c-4.034 0.003-7.294-3.366-7.294-7.51 0-4.148 3.26-7.514 7.294-7.514 4.024 0 7.288 3.369 7.288 7.511C7.288-3.366 4.024 0.003 0 0" id="path4255" inkscape:connector-curvature="0" class="s0"/>
              </g>
              <g transform="translate(65.6401,70.3096)" id="g4257">
                <path d="m0 0c-4.034 0.003-7.294-3.366-7.294-7.51 0-4.148 3.26-7.514 7.294-7.514 4.024 0 7.29 3.369 7.29 7.511C7.29-3.366 4.024 0.003 0 0" id="path4259" inkscape:connector-curvature="0" class="s0"/>
              </g>
              <g transform="translate(89.4984,51.8215)" id="g4261">
                <path d="m0 0c2.513 0 6.232-0.309 10.731-1.817 7.614-2.548 9.105-10.002 9.105-10.002l2.317-13.795c-7.13-3.863-15.292-6.06-23.964-6.06-8.674 0-16.833 2.197-23.967 6.06l2.321 13.795c0 0 1.49 7.454 9.101 10.002C-9.857-0.309-6.135 0-3.622 0c0.7 0 1.307-0.024 1.811-0.054C-1.307-0.024-0.702 0 0 0" id="path4263" inkscape:connector-curvature="0" class="s0"/>
              </g>
              <g transform="translate(112.09,40.559)" id="g4265">
                <path d="m0 0 0.006-0.042 0.009-0.044 0.919-5.469c3.852 0.429 7.485 1.591 10.748 3.357l-1.36 8.082c0 0-0.872 4.367-5.332 5.86-3.37 1.13-5.995 1.109-7.347 1.032-1.354 0.077-3.98 0.098-7.35-1.032C-9.752 11.729-9.792 11.709-9.836 11.693-1.766 8.345-0.071 0.352 0 0" id="path4267" inkscape:connector-curvature="0" class="s0"/>
              </g>
              <g transform="translate(63.2763,40.517)" id="g4269">
                <path d="M0 0 0.009 0.042C0.08 0.394 1.774 8.387 9.845 11.734 9.8 11.751 9.76 11.77 9.714 11.786c-3.37 1.13-5.996 1.109-7.347 1.031-1.354 0.078-3.977 0.099-7.35-1.031-4.457-1.493-5.332-5.86-5.332-5.86l-1.357-8.082c3.261-1.767 6.893-2.928 10.746-3.357l0.92 5.469L0 0Z" id="path4271" inkscape:connector-curvature="0" class="s0"/>
              </g>
              <g transform="translate(87.6972,80.7454)" id="g4273">
                <path d="m0 0c6.863 0 12.429-5.75 12.429-12.827 0-7.073-5.571-12.82-12.444-12.82-6.888 0-12.447 5.744-12.447 12.826C-12.462-5.75-6.908 0-0.027 0L-0.015 0 0 0" id="path4275" inkscape:connector-curvature="0" class="s0"/>
              </g>
            </g>
          </g>
        </g>
      </g>
    </g>
  </g>
</svg>
