<svg xmlns:svg="http://www.w3.org/2000/svg" xmlns="http://www.w3.org/2000/svg" version="1.1" xml:space="preserve" width="16" height="16" viewBox="0 0 16 16">
  <style>
    
.s0{
	fill:none;
	stroke-dasharray:none;
	stroke-linecap:butt;
	stroke-linejoin:miter;
	stroke-miterlimit:10;
	stroke-opacity:1;
	stroke-width:0.75;
	stroke:#636c75;
}


  </style>
  <g transform="matrix(1.25,0,0,-1.25,0,16)">
    <path d="m1.792 11.197002 0-0.5128 0.6712 0 0.6088-9.72719861c0-0.5656 0.4592-1.0248 1.024-1.0248l4.608 0c0.5656 0 1.0248 0.4592 1.0248 1.0248l0.607201 9.72799861 0.672 0 0 0.512-0.6392 0-1.920001 0 0 0.5112c-0.0008 0.5664-0.4592 1.024-1.0264 1.024l-2.0464 0c-0.5656 0-1.024-0.4576-1.024-1.024l0-0.5112-1.92 0-0.64 0zm6.144 0-3.0728 0 0 0.5112c0 0.2832 0.2304 0.5128 0.5128 0.5128l2.0472 0c0.2832 0 0.5128-0.2296 0.5128-0.5128l0-0.5112zm-4.9928-0.512 6.9128 0-0.6392-9.72719861c0-0.2824-0.2312-0.5128-0.5128-0.5128l-4.608 0c-0.2824 0-0.5128 0.2304-0.5128 0.5128l-0.64 9.72719861zm3.2-9.2159986 0.5128 0 0 8.1919996-0.5128 0 0-8.1919996zm-1.5352 0 0.5112 0-0.256 8.1919996-0.5112 0 0.256-8.1919996zm3.584 0 0.256 8.1919996-0.512 0-0.256-8.1919996 0.512 0z" fill="#3e5164"/>
  </g>
</svg>
