<svg xmlns:svg="http://www.w3.org/2000/svg" xmlns="http://www.w3.org/2000/svg" version="1.1" xml:space="preserve" width="20" height="20" viewBox="0 0 20 20">
  <defs>
    <clipPath clipPathUnits="userSpaceOnUse">
      <path d="M0 16 16 16 16 0 0 0 0 16Z"/>
    </clipPath>
  </defs>
  <g transform="matrix(1.25,0,0,-1.25,0,20)">
    <g clip-path="url(#clipPath4164)">
      <g transform="translate(11.5,8)">
        <path d="M0 0C0 0.8 0.7 1.5 1.5 1.5 2.3 1.5 3 0.8 3 0 3-0.8 2.3-1.5 1.5-1.5 0.7-1.5 0-0.8 0 0m-5 0c0 0.8 0.7 1.5 1.5 1.5C-2.7 1.5-2 0.8-2 0-2-0.8-2.7-1.5-3.5-1.5-4.3-1.5-5-0.8-5 0m-5 0c0 0.8 0.7 1.5 1.5 1.5 0.8 0 1.5-0.7 1.5-1.5 0-0.8-0.7-1.5-1.5-1.5-0.9 0-1.5 0.7-1.5 1.5" style="fill-opacity:1;fill-rule:nonzero;fill:#3e5164"/>
      </g>
    </g>
  </g>
</svg>
