<svg xmlns="http://www.w3.org/2000/svg" version="1.1" x="0px" y="0px" viewBox="0 0 24 24" xml:space="preserve">
  <style type="text/css">
    
	.st0{opacity:0.5;}
	.st1{clip-path:url(#XMLID_2_);}
	.st2{clip-path:url(#XMLID_3_);fill:#0C1924;}
	.st3{fill:#FFFFFF;}

  </style>
  <g class="st0">
    <defs>
      <rect x="0" width="24" height="24"/>
    </defs>
    <g class="st1">
      <defs>
        <rect x="0" width="24" height="24"/>
      </defs>
      <path class="st2" d="M12 0C5.4 0 0 5.4 0 12c0 6.6 5.4 12 12 12 6.6 0 12-5.4 12-12C24 5.4 18.6 0 12 0"/>
    </g>
  </g>
  <path class="st3" d="M15.8 18.8c-0.6 1-1.3 1.8-2.1 2.5 3.3-6.4 0.1-9.4-3.2-11.3l-1.5 2.6L5.5 4.8 14 3.8l-1.5 2.6C16.8 8.9 18.2 14.5 15.8 18.8"/>
</svg>
