<svg xmlns:svg="http://www.w3.org/2000/svg" xmlns="http://www.w3.org/2000/svg" version="1.1" xml:space="preserve" width="150" height="150" viewBox="0 0 150 150">
<style>
.s0{
	fill:#dde2e7;
}
.s1{
	fill:#fff;
}

</style>  <defs>
    <clipPath clipPathUnits="userSpaceOnUse">
      <path d="M0 120 120 120 120 0 0 0 0 120Z"/>
    </clipPath>
  </defs>
  <g transform="matrix(1.25,0,0,-1.25,0,150)">
    <g clip-path="url(#clipPath4150)">
      <g transform="translate(80.8066,75.6147)">
        <path d="m0 0c0-20.114-16.306-36.42-36.42-36.42-20.113 0-36.419 16.306-36.419 36.42 0 20.114 16.306 36.42 36.419 36.42C-16.306 36.42 0 20.114 0 0" fill="#dde2e7"/>
      </g>
      <g transform="translate(44.3685,115.9566)">
        <path d="m0 0c-22.219-0.005-40.308-18.095-40.322-40.325 0.014-22.239 18.115-40.341 40.352-40.349 22.233 0.008 40.322 18.097 40.322 40.323C40.352-18.115 22.25-0.014 0 0m0.03-84.721-0.002 0c-24.465 0.009-44.382 19.925-44.397 44.396 0.015 24.462 19.919 44.366 44.37 44.372 24.482-0.015 44.398-19.932 44.398-44.398 0-24.456-19.904-44.361-44.369-44.37" fill="#dde2e7"/>
      </g>
      <g transform="translate(117.1369,-0.0032)">
        <path d="m0 0-44.22 44.246 2.863 2.861L2.863 2.861 0 0Z" fill="#dde2e7"/>
      </g>
      <g transform="translate(60.1323,89.2829)">
        <path d="M0 0-32.862-5.795-34.021 0.778-1.159 6.573 0 0Z" fill="#fff"/>
      </g>
      <g transform="translate(40.6182,67.4606)">
        <path d="M0 0 0 10.011 6.673 5.006 0 0Zm-13.348-5.005 33.369 0 0 20.021-33.369 0 0-20.021z" fill="#fff"/>
      </g>
    </g>
  </g>
</svg>
