<svg xmlns:dc="http://purl.org/dc/elements/1.1/" xmlns:cc="http://creativecommons.org/ns#" xmlns:rdf="http://www.w3.org/1999/02/22-rdf-syntax-ns#" xmlns:svg="http://www.w3.org/2000/svg" xmlns="http://www.w3.org/2000/svg" xmlns:sodipodi="http://sodipodi.sourceforge.net/DTD/sodipodi-0.dtd" xmlns:inkscape="http://www.inkscape.org/namespaces/inkscape" version="1.1" inkscape:version="0.91 r13725" xml:space="preserve" width="20" height="20" viewBox="0 0 20 20" sodipodi:docname="release_chat_16px.ai">
<style>
.s0{
	fill-opacity:1;
	fill-rule:nonzero;
	fill:#636c75;
}

</style>  <metadata>
    <rdf:RDF>
      <cc:Work rdf:about="">
        <dc:format>
          image/svg+xml
        </dc:format>
        <dc:type rdf:resource="http://purl.org/dc/dcmitype/StillImage"/>
      </cc:Work>
    </rdf:RDF>
  </metadata>
  <sodipodi:namedview pagecolor="#ffffff" bordercolor="#666666" borderopacity="1" objecttolerance="10" gridtolerance="10" guidetolerance="10" inkscape:pageopacity="0" inkscape:pageshadow="2" inkscape:window-width="867" inkscape:window-height="656" showgrid="false" inkscape:zoom="11.8" inkscape:cx="10" inkscape:cy="10" inkscape:window-x="0" inkscape:window-y="56" inkscape:window-maximized="0" inkscape:current-layer="g10"/>
  <g inkscape:groupmode="layer" inkscape:label="release_chat_16px" transform="matrix(1.25,0,0,-1.25,0,20)">
    <g transform="translate(12.2059,11.4412)">
      <path d="m0 0 2.294 0 0-9.177-11.47 0 0 3.059 0.764 0 0-2.294 9.941 0 0 7.647L0-0.765 0 0Z" inkscape:connector-curvature="0" class="s0"/>
    </g>
    <g transform="translate(1.5,13.7353)">
      <path d="m0 0 9.941 0 0-4.588-0.765 0 0 3.823-8.411 0 0-6.117 5.353 0 0-0.765L0-7.647 0 0Z" inkscape:connector-curvature="0" class="s0"/>
    </g>
    <g transform="translate(7.197,8.65)">
      <path d="m0 0 3.09-3.33-1.905 0.004 0-0.765 3.059 0.004 0 3.055-0.765 0 0-1.746L0.612 0.609 0 0Z" inkscape:connector-curvature="0" class="s0"/>
    </g>
  </g>
</svg>
