<svg xmlns:svg="http://www.w3.org/2000/svg" xmlns="http://www.w3.org/2000/svg" version="1.1" xml:space="preserve" width="20" height="20" viewBox="0 0 20 20">
  <defs>
    <clipPath clipPathUnits="userSpaceOnUse">
      <path d="M0 16 16 16 16 0 0 0 0 16Z"/>
    </clipPath>
  </defs>
  <g transform="matrix(1.25,0,0,-1.25,0,20)">
    <g clip-path="url(#clipPath16)">
      <g transform="translate(12,5.5)">
        <path d="m0 0c-0.5 0-0.9-0.2-1.1-0.5l-5.4 2.7 0 0.3 0 0.3 5.4 2.7C-0.8 5.2-0.4 5 0 5 0.8 5 1.5 5.7 1.5 6.5 1.5 7.3 0.8 8 0 8-0.8 8-1.5 7.3-1.5 6.5l0-0.3-5.4-2.7C-7.1 3.8-7.5 4-8 4-8.8 4-9.5 3.3-9.5 2.5-9.5 1.7-8.8 1-8 1c0.5 0 0.9 0.2 1.1 0.5l5.4-2.7 0-0.3C-1.5-2.3-0.8-3 0-3 0.8-3 1.5-2.3 1.5-1.5 1.5-0.7 0.8 0 0 0" style="fill-opacity:1;fill-rule:nonzero;fill:#3e5164"/>
      </g>
    </g>
  </g>
</svg>
