<svg xmlns="http://www.w3.org/2000/svg" xmlns:xlink="http://www.w3.org/1999/xlink" version="1.1" xml:space="preserve" width="100%" height="100%" viewBox="0 0 150 150" ><rect id="svgEditorBackground" x="0" y="0" width="150" height="150" style="fill: none; stroke: none;"/>
<style>
.s0{
	fill:#dde2e7;
}
.s1{
	fill:#fff;
}

</style>  <defs>
    <clipPath clipPathUnits="userSpaceOnUse">
      <path d="M0 120 120 120 120 0 0 0 0 120Z"/>
    </clipPath>
  </defs>
  <g transform="matrix(1.25,0,0,-1.25,0,150)">
    <g clip-path="url(#clipPath4150)">
      <g transform="translate(80.8066,75.6147)">
        <path d="M0,0c0,-20.114,-16.306,-36.42,-36.42,-36.42c-20.113,0,-36.419,16.306,-36.419,36.42c0,20.114,16.305999999999997,36.42,36.419,36.42c20.114,0,36.42,-16.306,36.42,-36.42" fill="#dde2e7"/>
      </g>
      <g transform="translate(44.3685,115.9566)">
        <path d="m0 0c-22.219-0.005-40.308-18.095-40.322-40.325 0.014-22.239 18.115-40.341 40.352-40.349 22.233 0.008 40.322 18.097 40.322 40.323C40.352-18.115 22.25-0.014 0 0m0.03-84.721-0.002 0c-24.465 0.009-44.382 19.925-44.397 44.396 0.015 24.462 19.919 44.366 44.37 44.372 24.482-0.015 44.398-19.932 44.398-44.398 0-24.456-19.904-44.361-44.369-44.37" fill="#dde2e7"/>
      </g>
      <g transform="translate(117.1369,-0.0032)">
        <path d="M0,0l-44.22,44.246l2.8629999999999995,2.860999999999997l44.22,-44.246l-2.863,-2.861Z" fill="#dde2e7"/>
      </g>
      <g transform="matrix(-2.49738 0.0107738 -0.0107738 -2.49738 82.8355 116.506)">
          <g id="Layer_1">
              <polygon fill="#ffffff" stroke="#dde2e7" stroke-width="0.75" stroke-miterlimit="10" points="20.671 10.792 20.671 8.125 18.768 8.125 18.768 10.792 11.907 10.792 11.907 8.125 10.005 8.125 10.005 10.792 7.338 10.792 7.338 24.125 23.338 24.125 23.338 10.792" />
          </g>
          <g id="Layer_2">
              <rect x="9.578" y="17.53" fill="none" stroke="#DDE2E7" stroke-miterlimit="10" width="0.8" height="0.801"/>
              <rect x="9.578" y="14.833" fill="none" stroke="#DDE2E7" stroke-miterlimit="10" width="0.8" height="0.8"/>
              <rect x="9.578" y="20.199" fill="none" stroke="#DDE2E7" stroke-miterlimit="10" width="0.8" height="0.801"/>
              <rect x="12.278" y="17.545" fill="none" stroke="#DDE2E7" stroke-miterlimit="10" width="0.8" height="0.801"/>
              <rect x="12.278" y="14.847" fill="none" stroke="#DDE2E7" stroke-miterlimit="10" width="0.8" height="0.8"/>
              <rect x="12.278" y="20.213" fill="none" stroke="#DDE2E7" stroke-miterlimit="10" width="0.8" height="0.801"/>
              <rect x="14.938" y="17.545" fill="none" stroke="#DDE2E7" stroke-miterlimit="10" width="0.8" height="0.801"/>
              <rect x="14.938" y="14.847" fill="none" stroke="#DDE2E7" stroke-miterlimit="10" width="0.8" height="0.8"/>
              <rect x="14.938" y="20.213" fill="none" stroke="#DDE2E7" stroke-miterlimit="10" width="0.8" height="0.801"/>
              <rect x="17.611" y="17.545" fill="none" stroke="#DDE2E7" stroke-miterlimit="10" width="0.801" height="0.801"/>
              <rect x="17.612" y="14.848" fill="none" stroke="#DDE2E7" stroke-miterlimit="10" width="0.8" height="0.8"/>
              <rect x="17.611" y="20.213" fill="none" stroke="#DDE2E7" stroke-miterlimit="10" width="0.801" height="0.801"/>
              <rect x="20.271" y="17.545" fill="none" stroke="#DDE2E7" stroke-miterlimit="10" width="0.801" height="0.801"/>
              <rect x="20.272" y="14.848" fill="none" stroke="#DDE2E7" stroke-miterlimit="10" width="0.8" height="0.8"/>
              <rect x="20.271" y="20.213" fill="none" stroke="#DDE2E7" stroke-miterlimit="10" width="0.801" height="0.801"/>
          </g>
      </g>
    </g>
  </g>
</svg>