<?xml version="1.0" encoding="utf-8"?>
<!-- Generator: Adobe Illustrator 20.1.0, SVG Export Plug-In . SVG Version: 6.00 Build 0)  -->
<svg version="1.1" id="Layer_1" xmlns:svg="http://www.w3.org/2000/svg"
	 xmlns="http://www.w3.org/2000/svg" xmlns:xlink="http://www.w3.org/1999/xlink" x="0px" y="0px" viewBox="0 0 32 32"
	 style="enable-background:new 0 0 32 32;" xml:space="preserve">
<style type="text/css">
	.st0{fill:none;stroke:#3C5064;stroke-width:0.75;stroke-miterlimit:10;}
</style>
<title>calendar1</title>
<title>Layer 2</title>
<g>
	<path class="st0" d="M16,24.8c-2.6,0-5.1-0.7-7.3-1.9l0.7-4.2c0,0,0.5-2.3,2.8-3.1c1.4-0.5,3.7-0.5,3.8-0.5c0.2,0,2.5,0.1,3.8,0.5
		c2.3,0.8,2.8,3.1,2.8,3.1l0.7,4.2C21.1,24.1,18.6,24.8,16,24.8z"/>
	<path class="st0" d="M16,7.2c1.9,0,3.5,1.6,3.5,3.5c0,1.9-1.6,3.5-3.5,3.5c-1.9,0-3.5-1.6-3.5-3.5C12.5,8.8,14.1,7.2,16,7.2L16,7.2
		L16,7.2"/>
	<path class="st0" d="M22.7,9.6c-1.2,0-2.3,1-2.3,2.2c0,1.2,1,2.3,2.3,2.3c1.2,0,2.2-1,2.2-2.2C25,10.6,24,9.6,22.7,9.6"/>
	<path class="st0" d="M23.7,20.2c1.2-0.1,2.3-0.5,3.3-1l-0.4-2.5c0,0-0.3-1.3-1.6-1.8c-1.3-0.5-3.5-0.5-4.5,0c0,0,0,0,0,0"/>
	<path class="st0" d="M9.3,9.6c1.2,0,2.3,1,2.3,2.2c0,1.2-1,2.3-2.3,2.3c-1.2,0-2.2-1-2.2-2.2C7,10.6,8,9.6,9.3,9.6"/>
	<path class="st0" d="M8.3,20.2c-1.2-0.1-2.3-0.5-3.3-1l0.4-2.5c0,0,0.3-1.3,1.6-1.8c1.3-0.5,3.5-0.5,4.5,0c0,0,0,0,0,0"/>
</g>
</svg>
