<?xml version="1.0" encoding="utf-8"?>
<!-- Generator: Adobe Illustrator 16.0.2, SVG Export Plug-In . SVG Version: 6.00 Build 0)  -->
<!DOCTYPE svg PUBLIC "-//W3C//DTD SVG 1.1//EN" "http://www.w3.org/Graphics/SVG/1.1/DTD/svg11.dtd">
<svg version="1.1" id="Layer_2" xmlns="http://www.w3.org/2000/svg" xmlns:xlink="http://www.w3.org/1999/xlink" x="0px" y="0px"
	 width="32px" height="32px" viewBox="0 0 32 32" enable-background="new 0 0 32 32" xml:space="preserve">
<path fill="none" stroke="#3C5064" stroke-miterlimit="10" d="M25.369,17.404v-2.16l-2.883-0.443
	c-0.174-0.671-0.449-1.346-0.818-1.94l1.713-2.355l-1.543-1.512l-2.334,1.709c-0.619-0.372-1.266-0.646-1.967-0.79l-0.441-2.883
	h-2.191l-0.423,2.898c-0.673,0.157-1.34,0.43-1.961,0.803L10.18,9.012l-1.537,1.544l1.738,2.357
	c-0.371,0.596-0.647,1.263-0.793,1.936l-2.885,0.469v2.165l2.885,0.443c0.146,0.673,0.422,1.319,0.82,1.94l-1.718,2.356l1.543,1.51
	l2.336-1.735c0.62,0.399,1.267,0.648,1.962,0.817l0.447,2.882h2.168l0.445-2.9c0.671-0.15,1.341-0.423,1.938-0.799l2.359,1.688
	l1.543-1.515l-1.741-2.354c0.373-0.597,0.647-1.267,0.796-1.938L25.369,17.404z"/>
<path fill="none" stroke="#3C5064" stroke-miterlimit="10" d="M16.037,20.364c-2.207,0-4.002-1.792-4.002-4.001
	c0-2.214,1.795-4,4.002-4c2.206,0,4,1.786,4,4C20.037,18.572,18.242,20.364,16.037,20.364z"/>
</svg>
