<?xml version="1.0" encoding="UTF-8" standalone="no"?>
<svg width="24px" height="15px" viewBox="0 0 24 15" version="1.1" xmlns="http://www.w3.org/2000/svg" xmlns:xlink="http://www.w3.org/1999/xlink">
    <!-- Generator: Sketch 39.1 (31720) - http://www.bohemiancoding.com/sketch -->
    <title>Shape</title>
    <desc>Created with Sketch.</desc>
    <defs></defs>
    <g id="Page-1" stroke="none" stroke-width="1" fill="none" fill-rule="evenodd">
        <g id="Artboard" transform="translate(-46.000000, -8.000000)" fill="#3C5064">
            <path d="M57.2873783,11.6555 C57.2873783,11.6555 57.2873783,12.6925 57.2873783,13.2415 L57.2873783,14.7645 C57.2873783,16.2485 56.7503964,17.6115 55.8637288,18.6705 C56.0759313,18.8525 56.3469129,18.9665 56.6467858,18.9665 L63.9304115,18.9665 C64.6008916,18.9665 65.143851,18.4205 65.143851,17.7475 L65.143851,12.8735 C65.143851,12.2015 64.6008916,11.6555 63.9304115,11.6555 L57.2873783,11.6555 Z M66.3586853,14.2279 L66.3586853,16.3929 L70,18.9659 L70,11.6559 L66.3586853,14.2279 Z M51.4624702,21.403 L51.4624702,20.185 L50.2490307,20.185 L50.2490307,21.403 L47.8211555,21.403 L47.8211555,22.621 L53.8903455,22.621 L53.8903455,21.403 L51.4624702,21.403 Z M55.7115009,13.483 L55.7115009,14.702 C55.7115009,17.393 53.5366747,19.575 50.8557505,19.575 C48.17383,19.575 46,17.393 46,14.702 L46,13.483 L47.2134395,13.483 L47.2134395,14.702 C47.2134395,16.717 48.8472989,18.357 50.8557505,18.357 C52.864202,18.357 54.4970652,16.717 54.4970652,14.702 L54.4970652,13.483 L55.7115009,13.483 Z M48.4278752,10.437 L48.4278752,14.702 C48.4278752,16.047 49.5147902,17.138 50.8557505,17.138 C52.1967107,17.138 53.2836257,16.047 53.2836257,14.702 L53.2836257,10.437 C53.2836257,9.091 52.1967107,8 50.8557505,8 C49.5147902,8 48.4278752,9.091 48.4278752,10.437 Z" id="Shape"></path>
        </g>
    </g>
</svg>