<?xml version="1.0" encoding="UTF-8" standalone="no"?>
<svg width="24px" height="15px" viewBox="0 0 24 15" version="1.1" xmlns="http://www.w3.org/2000/svg" xmlns:xlink="http://www.w3.org/1999/xlink">
    <!-- Generator: Sketch 39.1 (31720) - http://www.bohemiancoding.com/sketch -->
    <title>Shape</title>
    <desc>Created with Sketch.</desc>
    <defs></defs>
    <g id="Page-1" stroke="none" stroke-width="1" fill="none" fill-rule="evenodd">
        <g id="Artboard" transform="translate(-11.000000, -8.000000)" fill="#FFFFFF">
            <path d="M22.2873783,11.6555 C22.2873783,11.6555 22.2873783,12.6925 22.2873783,13.2415 L22.2873783,14.7645 C22.2873783,16.2485 21.7503964,17.6115 20.8637288,18.6705 C21.0759313,18.8525 21.3469129,18.9665 21.6467858,18.9665 L28.9304115,18.9665 C29.6008916,18.9665 30.143851,18.4205 30.143851,17.7475 L30.143851,12.8735 C30.143851,12.2015 29.6008916,11.6555 28.9304115,11.6555 L22.2873783,11.6555 Z M31.3586853,14.2279 L31.3586853,16.3929 L35,18.9659 L35,11.6559 L31.3586853,14.2279 Z M16.4624702,21.403 L16.4624702,20.185 L15.2490307,20.185 L15.2490307,21.403 L12.8211555,21.403 L12.8211555,22.621 L18.8903455,22.621 L18.8903455,21.403 L16.4624702,21.403 Z M20.7115009,13.483 L20.7115009,14.702 C20.7115009,17.393 18.5366747,19.575 15.8557505,19.575 C13.17383,19.575 11,17.393 11,14.702 L11,13.483 L12.2134395,13.483 L12.2134395,14.702 C12.2134395,16.717 13.8472989,18.357 15.8557505,18.357 C17.864202,18.357 19.4970652,16.717 19.4970652,14.702 L19.4970652,13.483 L20.7115009,13.483 Z M13.4278752,10.437 L13.4278752,14.702 C13.4278752,16.047 14.5147902,17.138 15.8557505,17.138 C17.1967107,17.138 18.2836257,16.047 18.2836257,14.702 L18.2836257,10.437 C18.2836257,9.091 17.1967107,8 15.8557505,8 C14.5147902,8 13.4278752,9.091 13.4278752,10.437 Z" id="Shape"></path>
        </g>
    </g>
</svg>