<svg xmlns:dc="http://purl.org/dc/elements/1.1/" xmlns:cc="http://creativecommons.org/ns#" xmlns:rdf="http://www.w3.org/1999/02/22-rdf-syntax-ns#" xmlns:svg="http://www.w3.org/2000/svg" xmlns="http://www.w3.org/2000/svg" xmlns:sodipodi="http://sodipodi.sourceforge.net/DTD/sodipodi-0.dtd" xmlns:inkscape="http://www.inkscape.org/namespaces/inkscape" version="1.1" inkscape:version="0.91 r13725" xml:space="preserve" width="22.5" height="22.5" viewBox="0 0 22.5 22.5" sodipodi:docname="calendar_18px.svg">
<style>
.s0{
	fill-opacity:1;
	fill-rule:nonzero;
	fill:#636c75;
}

</style>  <metadata>
    <rdf:RDF>
      <cc:Work rdf:about="">
        <dc:format>
          image/svg+xml
        </dc:format>
        <dc:type rdf:resource="http://purl.org/dc/dcmitype/StillImage"/>
      </cc:Work>
    </rdf:RDF>
  </metadata>
  <sodipodi:namedview pagecolor="#ffffff" bordercolor="#666666" borderopacity="1" objecttolerance="10" gridtolerance="10" guidetolerance="10" inkscape:pageopacity="0" inkscape:pageshadow="2" inkscape:window-width="1920" inkscape:window-height="1017" showgrid="false" inkscape:zoom="10.488889" inkscape:cx="11.25" inkscape:cy="11.25" inkscape:window-x="1272" inkscape:window-y="-8" inkscape:window-maximized="1" inkscape:current-layer="g10"/>
  <g inkscape:groupmode="layer" inkscape:label="calendar_18px" transform="matrix(1.25,0,0,-1.25,0,22.5)">
    <g transform="translate(11.7,15.75)">
      <path d="m0 0 0-0.9-5.4 0 0 0.9-2.7 0 0-0.9-3.6 0 0-12.6 18 0 0 12.6-3.6 0L2.7 0 0 0Zm-5.4-1.9 5.4 0 1 0 0 0.9 0.7 0 0-0.9 1 0 2.6 0 0-10.6-16 0 0 10.6 2.6 0 1 0 0 0.9 0.7 0 0-0.9 1 0z" inkscape:connector-curvature="0" class="s0"/>
    </g>
    <path d="m4.501 10.35-1.8 0 0 1.8 1.8 0 0-1.8zM7.201 10.35l-1.8 0 0 1.8 1.8 0 0-1.8zM9.901 10.35l-1.8 0 0 1.8 1.8 0 0-1.8zM12.601 10.35l-1.8 0 0 1.8 1.8 0 0-1.8zM15.301 10.35l-1.8 0 0 1.8 1.8 0 0-1.8zM4.501 7.65l-1.8 0 0 1.8 1.8 0 0-1.8zM7.201 7.65l-1.8 0 0 1.8 1.8 0 0-1.8zM9.901 7.65l-1.8 0 0 1.8 1.8 0 0-1.8zM12.601 7.65l-1.8 0 0 1.8 1.8 0 0-1.8zM15.301 7.65l-1.8 0 0 1.8 1.8 0 0-1.8zM4.501 4.95l-1.8 0 0 1.8 1.8 0 0-1.8zM7.201 4.95l-1.8 0 0 1.8 1.8 0 0-1.8zM9.901 4.95l-1.8 0 0 1.8 1.8 0 0-1.8zM12.601 4.95l-1.8 0 0 1.8 1.8 0 0-1.8zM15.301 4.95l-1.8 0 0 1.8 1.8 0 0-1.8z" inkscape:connector-curvature="0" class="s0"/>
  </g>
</svg>
