<svg xmlns="http://www.w3.org/2000/svg" xmlns:xlink="http://www.w3.org/1999/xlink" version="1.1" x="0px" y="0px" width="36px" height="36px" viewBox="0 0 36 36" enable-background="new 0 0 36 36" xml:space="preserve">
  <rect x="-0.003" fill="#96A0AA" width="36" height="36"/>
  <path fill="#FFFFFF" d="M18.813 17.384c1.131 0 2.804 0.14 4.828 0.815 3.425 1.142 4.096 4.484 4.096 4.484l1.043 6.188c-3.208 1.731-6.88 2.717-10.782 2.717s-7.573-0.985-10.782-2.717l1.044-6.188c0 0 0.67-3.343 4.094-4.484 2.024-0.676 3.699-0.815 4.83-0.815 0.314 0 0.588 0.011 0.814 0.024C18.225 17.395 18.497 17.384 18.813 17.384M18.002 4.413c3.088 0 5.592 2.58 5.592 5.752s-2.507 5.749-5.599 5.749c-3.098 0-5.6-2.576-5.6-5.752 0-3.17 2.499-5.749 5.595-5.749h0.005H18.002"/>
</svg>
