<svg xmlns="http://www.w3.org/2000/svg" viewBox="0 0 24 24"><title>ic_portal_signin</title><path d="M21.57,12a9.8,9.8,0,1,1-9.8-9.8,9.8,9.8,0,0,1,9.8,9.8" style="fill:#96a0aa"/><path d="M11.77,22a10,10,0,1,1,10-10,10,10,0,0,1-10,10m0-19.59A9.59,9.59,0,1,0,21.37,12a9.6,9.6,0,0,0-9.6-9.59" style="fill:#dce1e6"/><path d="M12.22,11.32a8.44,8.44,0,0,1,2.62.44,3.47,3.47,0,0,1,2.23,2.44l.57,3.37a12.36,12.36,0,0,1-11.73,0l.56-3.37A3.48,3.48,0,0,1,8.7,11.76a8.45,8.45,0,0,1,2.63-.44h.89" style="fill:#fff"/><path d="M11.78,4.26a3.08,3.08,0,0,1,3,3.13,3.05,3.05,0,1,1-6.1,0,3.09,3.09,0,0,1,3-3.13h0" style="fill:#fff"/><rect width="24" height="24" style="fill:none"/></svg>