<svg xmlns="http://www.w3.org/2000/svg" viewBox="0 0 24 24"><title>ic_portal_settings</title><path d="M20,12.89V11l-2.47-.38A6,6,0,0,0,16.83,9l1.46-2L17,5.68,15,7.15a5.21,5.21,0,0,0-1.68-.68L12.91,4H11l-.36,2.48A6,6,0,0,0,9,7.17L7,5.7,5.66,7,7.15,9a5.44,5.44,0,0,0-.68,1.66L4,11.11V13l2.47.38A4.94,4.94,0,0,0,7.18,15L5.71,17,7,18.32l2-1.49a5.5,5.5,0,0,0,1.68.7L11.09,20H13l.38-2.49A5.34,5.34,0,0,0,15,16.83l2,1.45L18.34,17l-1.49-2a5.34,5.34,0,0,0,.68-1.66Z" style="fill:none;stroke:#f2f2f2;stroke-miterlimit:10"/><circle cx="12" cy="12" r="3.43" style="fill:none;stroke:#f2f2f2;stroke-miterlimit:10"/><rect width="24" height="24" style="fill:none"/></svg>